<svg xmlns="http://www.w3.org/2000/svg" viewBox="0 0 1024 1024"><path d="M 398,585 394,589 394,667 398,671 409,671 414,667 415,664 415,591 414,588 410,585 Z" fill="#a65a2b"/><path d="M 371,586 304,585 300,589 299,663 300,667 304,671 315,671 320,667 321,639 323,637 359,637 365,631 364,623 358,619 322,619 321,604 323,602 368,602 373,597 373,589 Z" fill="#a65a2b"/><path d="M 642,585 639,588 639,593 674,634 675,667 679,671 693,670 696,665 696,635 728,597 731,592 730,587 727,585 711,586 686,615 684,615 657,585 Z" fill="#a65a2b"/><path d="M 548,586 545,590 545,666 548,670 602,670 613,666 628,653 635,637 635,619 629,604 620,594 610,588 600,585 555,584 Z" fill="#a65a2b"/><path d="M 438,586 436,589 435,663 436,667 440,671 452,671 455,669 457,665 458,619 506,670 519,671 523,668 524,589 520,585 507,585 503,589 502,636 453,585 445,584 Z" fill="#a65a2b"/><path d="M 285,426 285,443 289,462 298,483 308,497 322,511 340,523 357,530 382,535 412,534 431,529 450,520 470,505 483,490 494,469 499,451 501,427 522,429 523,451 531,475 546,498 556,508 571,519 587,527 602,532 618,535 642,535 666,530 688,520 697,514 714,498 724,484 732,467 737,445 736,418 731,399 720,377 707,360 684,340 664,329 647,323 624,319 602,319 576,325 562,332 556,338 582,342 582,344 552,351 524,354 483,353 443,345 440,343 441,342 463,339 465,337 448,326 432,321 420,319 395,319 374,323 355,330 344,336 326,349 316,359 303,376 292,397 Z" fill="#a65a2b"/><path d="M 480,326 480,331 482,334 487,337 500,340 520,340 532,338 537,336 542,331 541,325 536,321 513,317 488,320 482,323 Z" fill="#a65a2b"/></svg>